<?xml version="1.0" encoding="utf-8"?>
<!-- Generator: Adobe Illustrator 21.0.0, SVG Export Plug-In . SVG Version: 6.00 Build 0)  -->
<svg version="1.1" id="图层_1" xmlns="http://www.w3.org/2000/svg" xmlns:xlink="http://www.w3.org/1999/xlink" x="0px" y="0px"
	 viewBox="0 0 200 200" style="enable-background:new 0 0 200 200;" xml:space="preserve">
<style type="text/css">
	.st0{fill:#2C2C2C;}
</style>
<path class="st0" d="M161.6,74.1h-120c-3.8,0-6.8-3.1-6.8-6.8V39.1c0-3.8,3.1-6.8,6.8-6.8h120c3.8,0,6.8,3.1,6.8,6.8v28.1
	C168.5,71,165.4,74.1,161.6,74.1z M41.6,38.2c-0.5,0-1,0.4-1,1l0,0v28.1c0,0.5,0.4,1,1,1h120c0.5,0,1-0.4,1-1l0,0V39.1
	c0-0.5-0.4-1-1-1l0,0H41.6z M161.6,121.7h-120c-3.8,0-6.8-3.1-6.8-6.8V86.8c0-3.8,3.1-6.8,6.8-6.8h120c3.8,0,6.8,3.1,6.8,6.8v28.1
	C168.5,118.7,165.4,121.7,161.6,121.7z M41.6,85.8c-0.5,0-1,0.4-1,1l0,0v28.1c0,0.5,0.4,1,1,1h120c0.5,0,1-0.4,1-1l0,0V86.8
	c0-0.5-0.4-1-1-1l0,0H41.6z M161.6,169.4h-120c-3.8,0-6.8-3.1-6.8-6.8v-28.1c0-3.8,3.1-6.8,6.8-6.8h120c3.8,0,6.8,3.1,6.8,6.8v28.1
	C168.5,166.4,165.4,169.4,161.6,169.4z M41.6,133.5c-0.5,0-1,0.4-1,1l0,0v28.1c0,0.5,0.4,1,1,1h120c0.5,0,1-0.4,1-1l0,0v-28.1
	c0-0.5-0.4-1-1-1l0,0H41.6z"/>
<path class="st0" d="M46,49.3h14.3v7.8H46V49.3z M115.6,49.3h41.7v7.8h-41.7V49.3z M71.7,49.3H86v7.8H71.7V49.3z M46,97h14.3v7.8H46
	V97z M115.6,97h41.7v7.8h-41.7V97z M71.7,97H86v7.8H71.7V97z M46,144.6h14.3v7.8H46V144.6z M115.6,144.6h41.7v7.8h-41.7V144.6z
	 M71.7,144.6H86v7.8H71.7V144.6z"/>
</svg>
