<?xml version="1.0" encoding="utf-8"?>
<!-- Generator: Adobe Illustrator 16.0.0, SVG Export Plug-In . SVG Version: 6.00 Build 0)  -->
<!DOCTYPE svg PUBLIC "-//W3C//DTD SVG 1.1//EN" "http://www.w3.org/Graphics/SVG/1.1/DTD/svg11.dtd">
<svg version="1.1" id="图层_1" xmlns="http://www.w3.org/2000/svg" xmlns:xlink="http://www.w3.org/1999/xlink" x="0px" y="0px"
	 width="200px" height="200px" viewBox="0 0 200 200" enable-background="new 0 0 200 200" xml:space="preserve">
<path fill="#282828" d="M40.513,131.807c-2.315,0-4.226,1.91-4.226,4.281v22.863c0,2.418,1.911,4.384,4.226,4.384
	c2.371,0,4.333-1.966,4.333-4.384v-22.863C44.845,133.717,42.883,131.807,40.513,131.807L40.513,131.807z M192.225,124.549
	L192.225,124.549c0-0.404,0-0.752-0.102-1.105l-15.914-97.316c-0.608-3.673-2.319-7.252-4.732-9.716
	c-2.724-2.673-6.15-4.282-10.381-4.282H38.95c-4.175,0-8.01,1.66-10.78,4.43h-0.042c-2.622,2.72-4.235,6.346-4.333,10.274
	l-15.82,95.953c-0.148,0.656-0.2,1.158-0.2,1.763v41.003c0.502,7.35,5.239,13.85,12.892,15.816l0.102,0.102h0.056h0.2h0.047
	l0.2,0.047l0.205,0.051l0,0l0.205,0.051l0,0h0.2l0.149,0.052l0.251,0.047l1.06,0.103l0.456,0.051h0.2l0.2,0.051h151.006
	c9.372,0,17.023-7.708,17.023-17.126V124.549L192.225,124.549L192.225,124.549z M37.747,28.494L37.747,28.494
	c0.097-0.4,0.148-0.753,0.148-1.204l0,0c0-0.255,0.149-0.506,0.302-0.655l0,0c0.205-0.2,0.502-0.405,0.753-0.405h122.146
	c0.103,0,0.205,0,0.256,0.205c0.451,0.451,0.754,1.204,0.902,2.06l10.228,62.207c-0.507-0.103-0.907-0.103-1.312-0.103H28.932
	c-0.405,0-0.911,0-1.311,0.103L37.747,28.494L37.747,28.494z M26.11,99.868L26.11,99.868c0.753-0.502,1.813-0.804,2.822-0.804
	H171.17c1.01,0,1.967,0.302,2.822,0.804l2.217,13.249h-1.008h-150.3h-0.906L26.11,99.868L26.11,99.868z M178.074,164.795
	L178.074,164.795c0,1.562-1.311,2.873-2.873,2.873H24.748c-1.409-0.103-2.622-1.009-2.771-2.52v-0.051h-0.051v-35.007
	c0.102-1.562,1.362-2.767,2.975-2.767h150.3c0.805,0,1.511,0.299,2.013,0.855l0,0l0,0c0.502,0.498,0.86,1.205,0.86,1.911V164.795
	L178.074,164.795z M149.916,133.363L149.916,133.363c-7.861,0-14.254,6.352-14.254,14.156c0,7.806,6.393,14.203,14.254,14.203
	c7.707,0,14.207-6.449,14.207-14.203C164.122,139.715,157.674,133.363,149.916,133.363L149.916,133.363z M149.916,153.158
	L149.916,153.158c-3.223,0-5.793-2.52-5.793-5.639c0-3.176,2.57-5.695,5.793-5.695c3.119,0,5.643,2.571,5.643,5.695
	C155.559,150.588,153.035,153.158,149.916,153.158L149.916,153.158z M71.893,131.807L71.893,131.807
	c-2.366,0-4.277,1.91-4.277,4.281v22.863c0,2.418,1.911,4.384,4.277,4.384c2.32,0,4.282-1.966,4.282-4.384v-22.863
	C76.174,133.717,74.212,131.807,71.893,131.807L71.893,131.807z M56.23,131.807L56.23,131.807c-2.315,0-4.235,1.91-4.235,4.281
	v22.863c0,2.418,1.92,4.384,4.235,4.384c2.315,0,4.23-1.966,4.23-4.384v-22.863C60.461,133.717,58.545,131.807,56.23,131.807
	L56.23,131.807z"/>
</svg>
