<?xml version="1.0" encoding="utf-8"?>
<!-- Generator: Adobe Illustrator 21.0.0, SVG Export Plug-In . SVG Version: 6.00 Build 0)  -->
<svg version="1.1" id="图层_1" xmlns="http://www.w3.org/2000/svg" xmlns:xlink="http://www.w3.org/1999/xlink" x="0px" y="0px"
	 viewBox="0 0 200 200" style="enable-background:new 0 0 200 200;" xml:space="preserve">
<g>
	<path d="M101.1,11c-48.3,0-87.5,39.2-87.5,87.5c0,48.3,39.2,87.5,87.5,87.5c48.3,0,87.5-39.2,87.5-87.5
		C188.7,50.2,149.5,11,101.1,11z M101.1,176.7c-43.2,0-78.2-35-78.2-78.2s35-78.2,78.2-78.2s78.2,35,78.2,78.2
		S144.3,176.7,101.1,176.7z"/>
	<path d="M131.8,54.2c-7.7-3.7-18.6-5.6-30.7-5.6s-23,1.9-30.7,5.6c-8.8,4.4-13.1,9.4-13.1,15.6v58c0,5.6,4.4,11.2,13.1,15
		c7.7,3.7,18.6,5.6,30.7,5.6s23-1.9,30.7-5.6c8.2-3.7,13.1-9.4,13.1-15v-58C144.9,63.6,140.6,58.6,131.8,54.2 M126.9,79.8
		c-7.1,3.1-17,4.4-25.7,4.4c-9.3,0-18.6-1.2-25.7-4.4c-8.2-2.5-12-6.2-12-10s4.4-7.5,12-10.6c7.1-3.1,16.4-4.4,25.7-4.4
		c8.8,0,18.6,1.9,25.7,4.4c7.7,3.1,12,6.9,12,10.6S135.1,77.3,126.9,79.8 M127.4,97.9c-7.1,2.5-17,4.4-26.3,4.4s-18.6-1.9-26.3-4.4
		c-7.7-3.1-12-6.9-12-10.6v-6.9c5.5,2.5,9.3,5.6,15.3,6.9c7.1,1.9,14.8,3.1,23,3.1s15.9-1.2,23-3.1c6-1.2,9.9-4.4,15.3-6.9v7.5
		C139.5,91,135.1,94.8,127.4,97.9 M127.4,117.9c-7.1,2.5-17,4.4-26.3,4.4s-18.6-1.9-26.3-4.4c-7.7-2.5-12-6.2-12-10.6v-9.4
		c5.5,3.1,9.3,5.6,15.3,7.5c7.1,1.9,14.8,3.1,23,3.1s15.9-1.2,23-3.1c6-1.9,9.9-4.4,15.3-7.5v9.4
		C139.5,111.6,135.1,115.4,127.4,117.9 M101.1,142.2c-9.3,0-18.6-1.9-26.3-4.4c-7.7-2.5-12-6.2-12-10.6v-9.4
		c5.5,3.1,9.3,5.6,15.3,7.5c6.6,1.9,14.8,3.1,22.4,3.1c8.2,0,15.9-1.2,23-3.1c6.6-1.9,10.4-4.4,15.9-7.5v9.4c0,3.7-4.4,7.5-12,10.6
		C120.3,140.9,109.9,142.2,101.1,142.2"/>
	<circle cx="100.3" cy="16.1" r="11.9"/>
	<circle cx="100.3" cy="181.4" r="11.9"/>
	<circle cx="183.7" cy="100" r="11.9"/>
	<circle cx="18.7" cy="100" r="11.9"/>
</g>
</svg>
