<!-- Generated by IcoMoon.io -->
<svg version="1.1" xmlns="http://www.w3.org/2000/svg" width="32" height="32" viewBox="0 0 32 32">
<title>menu-vm</title>
<path d="M28.647 8.854c-0.354-1.205-1.769-2.238-3.538-2.238-1.238 0-2.3 0.517-3.184 1.377h-0.177c-1.415 0-2.477 0.86-3.008 2.066-0.885 0.688-1.593 1.721-1.593 2.926 0 2.067 1.769 3.788 3.715 3.788h6.369c2.3 0 4.069-1.893 4.069-4.131 0-1.721-1.062-3.1-2.654-3.788zM27.586 15.223h-6.369c-1.061 0-1.946-0.86-1.946-2.066 0-0.86 0.531-1.721 1.415-1.893v-0.172c0-0.688 0.531-1.376 1.415-1.376 0.354 0 0.708 0.172 0.885 0.345 0.177-1.033 1.061-1.721 2.123-1.721 1.238 0 2.3 0.86 2.654 2.066 1.238 0.172 2.123 1.205 2.123 2.41 0 1.203-1.061 2.408-2.3 2.408zM6.179 5.585h10.792v1.721h-10.792v-1.721zM6.179 9.37h10.792v1.721h-10.792v-1.721zM6.179 13.158h10.792v1.721h-10.792v-1.721zM6.179 16.944h10.792v1.722h-10.792v-1.722zM6.179 20.558h10.792v1.721h-10.792v-1.721zM20.686 30.027v0.172h-18.222v-28.402h18.222v4.131h1.769v-3.959c0-0.517-0.177-1.033-0.531-1.376-0.354-0.345-0.885-0.517-1.415-0.517h-17.868c-0.531 0-1.062 0.172-1.415 0.517-0.354 0.516-0.531 1.033-0.531 1.376v28.058c0 0.517 0.177 1.033 0.531 1.377 0.354 0.345 0.885 0.517 1.415 0.517h17.868c0.531 0 1.062-0.172 1.415-0.517s0.531-0.86 0.531-1.377v-11.876h-1.769v11.876z"></path>
</svg>
