<?xml version="1.0" encoding="utf-8"?>
<!-- Generator: Adobe Illustrator 21.0.0, SVG Export Plug-In . SVG Version: 6.00 Build 0)  -->
<svg version="1.1" id="图层_1" xmlns="http://www.w3.org/2000/svg" xmlns:xlink="http://www.w3.org/1999/xlink" x="0px" y="0px"
	 viewBox="0 0 200 200" style="enable-background:new 0 0 200 200;" xml:space="preserve">
<path d="M81.4,9.4c0,0,3.6,1.7,6.9,8.1c3.2,6.5,1.9,21.3,0.8,23.7s-6.6,17.3-15.2,11.8S60,52,60,52s5.6,1.3,6.3,6.9
	c0.6,5.6-0.3,12.7-6.3,16c-6,3.2-10.8,14.2-8.6,20.8c2.3,6.6,6,10.5,10,12.1h19.1c0,0-1.2-11.3,5.4-19.9
	c6.7-8.6,12.1-11.4,12.7-25.9c0,0,4.1,2.8,5.3,8.2c1.2,5.4-0.2,11.9-3.9,16.7c-3.6,4.8,0.6,14.9,4.3,15c3.7,0.1,8.9,2.1,12-11.3
	c0,0,3.8-0.6,5.4,6.8c1.7,7.4,1.6,10.4,1.6,10.4h26.9c0,0-5.1-19-14.3-28.2c0,0-1.9,1.2,0.1-12.2c2.1-13.4,4.6-19-2.1-26.1
	c-6.7-7.1-8.8-6.1-8.8-6.1s-10.8,16.2-14.2,16.3c0,0,6.1-10.3,2.3-25.2C109.7,11.5,88.9,4.7,81.4,9.4z"/>
<path d="M74.8,137.1c0,6.2-5.1,11.3-11.3,11.3h-44c-6.2,0-11.3-5.1-11.3-11.3v-14.7c0-6.2,5.1-11.3,11.3-11.3h44
	c6.2,0,11.3,5.1,11.3,11.3V137.1z"/>
<path d="M121.3,180.7c0,6.2-5.1,11.3-11.3,11.3H19.5c-6.2,0-11.3-5.1-11.3-11.3V166c0-6.2,5.1-11.3,11.3-11.3H110
	c6.2,0,11.3,5.1,11.3,11.3C121.3,166,121.3,180.7,121.3,180.7z"/>
<path d="M193.9,180.7c0,6.2-5.1,11.3-11.3,11.3h-41.5c-6.2,0-11.3-5.1-11.3-11.3V166c0-6.2,5.1-11.3,11.3-11.3h41.5
	c6.2,0,11.3,5.1,11.3,11.3V180.7z"/>
<path d="M193.9,137.1c0,6.2-5.1,11.3-11.3,11.3H89.2c-6.2,0-11.3-5.1-11.3-11.3v-14.7c0-6.2,5.1-11.3,11.3-11.3h93.4
	c6.2,0,11.3,5.1,11.3,11.3L193.9,137.1L193.9,137.1z"/>
</svg>
