<?xml version="1.0" encoding="utf-8"?>
<!-- Generator: Adobe Illustrator 21.0.0, SVG Export Plug-In . SVG Version: 6.00 Build 0)  -->
<svg version="1.1" id="图层_1" xmlns="http://www.w3.org/2000/svg" xmlns:xlink="http://www.w3.org/1999/xlink" x="0px" y="0px"
	 viewBox="0 0 200 200" style="enable-background:new 0 0 200 200;" xml:space="preserve">
<path d="M117.6,42.2c0,0,2.2,1.1,4.3,5c2,4,1.2,13.3,0.5,14.8c-0.7,1.5-4.1,10.8-9.5,7.3c-5.4-3.4-8.7-0.6-8.7-0.6s3.5,0.8,3.9,4.3
	c0.4,3.5-0.2,7.9-3.9,10c-3.7,2-6.7,8.8-5.4,13c1.4,4.1,3.7,6.5,6.2,7.5h11.9c0,0-0.7-7,3.4-12.4c4.2-5.4,7.5-7.1,7.9-16.1
	c0,0,2.6,1.7,3.3,5.1c0.7,3.4-0.1,7.4-2.4,10.4c-2.2,3,0.4,9.3,2.7,9.3c2.3,0.1,5.5,1.3,7.5-7c0,0,2.4-0.4,3.4,4.2
	c1.1,4.6,1,6.5,1,6.5h16.7c0,0-3.2-11.8-8.9-17.6c0,0-1.2,0.7,0.1-7.6c1.3-8.3,2.9-11.8-1.3-16.3s-5.5-3.8-5.5-3.8
	s-6.7,10.1-8.8,10.1c0,0,3.8-6.4,1.4-15.7C135.2,43.5,122.3,39.2,117.6,42.2z"/>
<path d="M58.1,52.7c-2.4,9.3,1.4,15.7,1.4,15.7c-2.1-0.1-8.8-10.1-8.8-10.1s-1.3-0.6-5.5,3.8c-4.2,4.4-2.6,7.9-1.3,16.3
	c1.2,8.3,0.1,7.6,0.1,7.6c-5.7,5.7-8.9,17.6-8.9,17.6h16.7c0,0-0.1-1.9,1-6.5c1-4.6,3.4-4.2,3.4-4.2c1.9,8.3,5.2,7.1,7.5,7
	c2.3-0.1,4.9-6.4,2.7-9.3c-2.3-3-3.2-7-2.4-10.4c0.7-3.4,3.3-5.1,3.3-5.1c0.4,9,3.7,10.8,7.9,16.1c4.1,5.4,3.4,12.4,3.4,12.4h11.9
	c2.5-1,4.8-3.4,6.2-7.5c1.4-4.1-1.6-11-5.4-13c-3.7-2.1-4.3-6.5-3.9-10c0.4-3.5,3.9-4.3,3.9-4.3s-3.3-2.8-8.7,0.6
	c-5.4,3.4-8.8-5.9-9.5-7.3c-0.7-1.5-1.5-10.7,0.5-14.8c2.1-4,4.3-5,4.3-5C73.2,39.2,60.3,43.5,58.1,52.7z"/>
<path d="M165.7,127.4H29.8c-3.3,0-5.9-2.7-5.9-5.9v-9.6c0-3.3,2.7-5.9,5.9-5.9h135.9c3.3,0,5.9,2.7,5.9,5.9v9.6
	C171.7,124.8,169,127.4,165.7,127.4z"/>
<path d="M53.6,153.4H29.9c-3.3,0-5.9-2.7-5.9-5.9v-9.6c0-3.3,2.7-5.9,5.9-5.9h23.7c3.3,0,5.9,2.7,5.9,5.9v9.6
	C59.5,150.8,56.9,153.4,53.6,153.4z"/>
<path d="M122.8,153.8H69.9c-3.3,0-5.9-2.7-5.9-5.9v-9.6c0-3.3,2.7-5.9,5.9-5.9h52.9c3.3,0,5.9,2.7,5.9,5.9v9.6
	C128.8,151.1,126.1,153.8,122.8,153.8z"/>
<path d="M165.7,153.4h-26.8c-3.3,0-5.9-2.7-5.9-5.9v-9.6c0-3.3,2.7-5.9,5.9-5.9h26.8c3.3,0,5.9,2.7,5.9,5.9v9.6
	C171.7,150.8,169,153.4,165.7,153.4z"/>
</svg>
