<?xml version="1.0" encoding="utf-8"?>
<!-- Generator: Adobe Illustrator 21.0.0, SVG Export Plug-In . SVG Version: 6.00 Build 0)  -->
<svg version="1.1" id="图层_1" xmlns="http://www.w3.org/2000/svg" xmlns:xlink="http://www.w3.org/1999/xlink" x="0px" y="0px"
	 viewBox="0 0 200 200" style="enable-background:new 0 0 200 200;" xml:space="preserve">
<style type="text/css">
	.st0{fill:#282828;}
</style>
<g>
	<g transform="scale(0.1953125, 0.1953125)">
		<path class="st0" d="M906.4,988.9H117.6c-32,0-58.3-26.3-58.3-58.3V107c0-32,26.3-58.3,58.3-58.3h788.8c32,0,58.3,26.3,58.3,58.3
			v823.6C964.7,962.6,938.4,988.9,906.4,988.9z M117.6,98.6c-4.7,0-8.5,3.8-8.5,8.5v823.6c0,4.7,3.8,8.5,8.5,8.5h788.8
			c4.7,0,8.5-3.8,8.5-8.5V107c0-4.7-3.8-8.5-8.5-8.5L117.6,98.6L117.6,98.6z M394.9,445.5V219.8c0-19.7-16-35.7-35.7-35.7
			s-35.7,16-35.7,35.7v224.7c-35.7,14.1-60.2,48.9-60.2,89.3v89.3c0,40.4,25.4,75.2,60.2,89.3v104.4c0,19.8,16,35.7,35.7,35.7
			s35.7-16,35.7-35.7V713.4c35.7-14.1,60.2-48.9,60.2-89.3v-89.3C455.1,494.4,430.7,459.6,394.9,445.5z M405.3,624.1
			c0,25.4-20.7,46.1-46.1,46.1c-25.4,0-46.1-20.7-46.1-46.1v-89.3c0-25.4,20.7-46.1,46.1-46.1c25.4,0,46.1,20.7,46.1,46.1V624.1z
			 M700.5,293.2v-72.4c0-19.7-16-35.7-35.7-35.7c-19.8,0-35.7,16-35.7,35.7v72.4c-35.7,14.1-60.2,48.9-60.2,89.3v89.3
			c0,40.4,25.4,75.2,60.2,89.3v256.7c0,19.8,16,35.7,35.7,35.7c19.7,0,35.7-16,35.7-35.7V561.1c35.7-14.1,60.2-48.9,60.2-89.3v-89.3
			C761.6,342.1,736.2,307.3,700.5,293.2z M710.9,471.8c0,11.3-3.8,20.7-10.4,29.1c-8.5,10.3-21.6,17.9-35.7,17.9
			c-15,0-27.3-6.6-35.7-17.9c-6.6-7.5-10.3-17.9-10.3-29.1v-89.3c0-11.3,3.8-20.7,10.3-29.1c8.5-10.3,21.6-17.9,35.7-17.9
			c15,0,27.3,6.6,35.7,17.9c6.6,7.5,10.4,17.9,10.4,29.1L710.9,471.8L710.9,471.8z"/>
	</g>
</g>
</svg>
