<?xml version="1.0" encoding="utf-8"?>
<!-- Generator: Adobe Illustrator 21.0.0, SVG Export Plug-In . SVG Version: 6.00 Build 0)  -->
<svg version="1.1" id="图层_1" xmlns="http://www.w3.org/2000/svg" xmlns:xlink="http://www.w3.org/1999/xlink" x="0px" y="0px"
	 viewBox="0 0 200 200" style="enable-background:new 0 0 200 200;" xml:space="preserve">
<style type="text/css">
	.st0{fill:#2C2C2C;}
</style>
<path class="st0" d="M52.6,155l0,32.2c-0.1,1.1,1.5,9.1-16,8.4c-5.8-0.2-12.4-3.9-12.4-7.7L24.1,24.1c0-10.4,8.5-19,19-19h113.9
	c10.4,0,19,8.5,19,19v112c0,10.4-8.5,19-19,19H52.6z M66.8,128.5h75.9c5.7,0,9.5-3.8,9.5-9.5s-3.8-9.5-9.5-9.5H66.8
	c-5.7,0-9.5,3.8-9.5,9.5S61.1,128.5,66.8,128.5z M66.8,90.5h75.9c5.7,0,9.5-3.8,9.5-9.5c0-5.7-3.8-9.5-9.5-9.5H66.8
	c-5.7,0-9.5,3.8-9.5,9.5C57.3,86.7,61.1,90.5,66.8,90.5z M66.8,52.6h75.9c5.7,0,9.5-3.8,9.5-9.5s-3.8-9.5-9.5-9.5H66.8
	c-5.7,0-9.5,3.8-9.5,9.5S61.1,52.6,66.8,52.6z"/>
</svg>
