<?xml version="1.0" encoding="utf-8"?>
<!-- Generator: Adobe Illustrator 21.0.0, SVG Export Plug-In . SVG Version: 6.00 Build 0)  -->
<svg version="1.1" id="图层_1" xmlns="http://www.w3.org/2000/svg" xmlns:xlink="http://www.w3.org/1999/xlink" x="0px" y="0px"
	 viewBox="0 0 200 200" style="enable-background:new 0 0 200 200;" xml:space="preserve">
<style type="text/css">
	.st0{stroke:#000000;stroke-width:4;stroke-miterlimit:10;}
</style>
<path class="st0" d="M163.8,117.3c0.6-3.6,1-7.3,1-11c0-22.6-12-43.6-31.2-55.3V29.2c0-8.2-16.8-12.5-33.3-12.5S66.9,21,66.9,29.2
	V51c-19.3,11.7-31.2,32.7-31.2,55.3c0,3.7,0.4,7.4,1,11c-12.5,1.4-22.9,5.5-22.9,11.9v41.7c0,8.2,16.8,12.5,33.3,12.5
	s33.3-4.3,33.3-12.5v-3.2c6.4,2.1,13,3.2,19.8,3.2s13.4-1.1,19.8-3.1v3.1c0,8.2,16.8,12.5,33.3,12.5s33.3-4.3,33.3-12.5v-41.7
	C186.6,122.7,176.2,118.7,163.8,117.3L163.8,117.3z M100.2,20.8c17.8,0,29.2,4.9,29.2,8.3s-11.4,8.3-29.2,8.3S71,32.6,71,29.2
	S82.4,20.8,100.2,20.8z M71,35.5c6,4,17.6,6.1,29.2,6.1s23.2-2.1,29.2-6.1V50c0,3.4-11.4,8.3-29.2,8.3S71,53.4,71,50V35.5z M71,56.4
	c6,4,17.6,6.1,29.2,6.1s23.2-2.1,29.2-6.1v14.5c0,3.4-11.4,8.3-29.2,8.3S71,74.2,71,70.8V56.4z M76.2,170.8c0,3.4-11.4,8.3-29.2,8.3
	s-29.2-4.9-29.2-8.3v-14.5c6,4,17.6,6.1,29.2,6.1s23.2-2.1,29.2-6.1V170.8L76.2,170.8z M76.2,150c0,3.4-11.4,8.3-29.2,8.3
	s-29.2-4.9-29.2-8.3v-14.5c6,4,17.6,6.1,29.2,6.1s23.2-2.1,29.2-6.1V150L76.2,150z M47.1,137.5c-17.8,0-29.2-4.9-29.2-8.3
	c0-3.4,11.4-8.3,29.2-8.3s29.2,4.9,29.2,8.3C76.2,132.6,64.9,137.5,47.1,137.5z M120,129.2v34.1c-12.7,4.4-26.9,4.4-39.6,0v-34.1
	c0-8.2-16.8-12.5-33.3-12.5c-2.1,0-4.2,0.1-6.3,0.2c-0.6-3.5-1-7.1-1-10.6C39.8,86,50.1,67,66.9,55.9v15c0,8.2,16.8,12.5,33.3,12.5
	s33.3-4.3,33.3-12.5v-15c16.8,11.1,27.1,30.1,27.1,50.4c0,3.6-0.4,7.1-1,10.6c-2.1-0.1-4.2-0.2-6.3-0.2
	C136.8,116.7,120,121,120,129.2L120,129.2z M182.5,170.8c0,3.4-11.4,8.3-29.2,8.3s-29.2-4.9-29.2-8.3v-14.5c6,4,17.6,6.1,29.2,6.1
	c11.5,0,23.2-2.1,29.2-6.1V170.8L182.5,170.8z M182.5,150c0,3.4-11.4,8.3-29.2,8.3s-29.2-4.9-29.2-8.3v-14.5c6,4,17.6,6.1,29.2,6.1
	c11.5,0,23.2-2.1,29.2-6.1V150L182.5,150z M153.3,137.5c-17.8,0-29.2-4.9-29.2-8.3c0-3.4,11.4-8.3,29.2-8.3s29.2,4.9,29.2,8.3
	C182.5,132.6,171.1,137.5,153.3,137.5z"/>
</svg>
